<svg fill="#0891b2" xmlns="http://www.w3.org/2000/svg"  viewBox="0 0 24 24" width="24px" height="24px"><path d="M 12 1 C 5.935 1 1 5.935 1 12 C 1 14.96 2.154 17.737312 4.25 19.820312 C 6.313 21.872313 9.0425 23 11.9375 23 L 12 23 C 18.065 23 23 18.065 23 12 C 23 5.935 18.065 1 12 1 z M 12 3 C 16.963 3 21 7.037 21 12 C 21 16.963 16.963141 21 11.994141 21 L 11.941406 21 C 9.5734063 21 7.3451562 20.078344 5.6601562 18.402344 C 3.9441562 16.697344 3 14.424 3 12 C 3 7.037 7.037 3 12 3 z M 12 5 C 8.141 5 5 8.141 5 12 C 5 15.859 8.141 19 12 19 C 15.859 19 19 15.859 19 12 C 19 8.141 15.859 5 12 5 z M 12 7 C 14.757 7 17 9.243 17 12 C 17 14.757 14.757 17 12 17 C 9.243 17 7 14.757 7 12 C 7 9.243 9.243 7 12 7 z M 12 9 C 10.346 9 9 10.346 9 12 C 9 13.654 10.346 15 12 15 C 13.654 15 15 13.654 15 12 C 15 10.346 13.654 9 12 9 z M 12 11 C 12.552 11 13 11.448 13 12 C 13 12.552 12.552 13 12 13 C 11.448 13 11 12.552 11 12 C 11 11.448 11.448 11 12 11 z"/></svg>